<svg xmlns="http://www.w3.org/2000/svg" viewBox="0 0 1000 1000"><defs><style>.cls-1{fill:#4569e4;}.cls-2{fill:#fff;}</style></defs><g id="Layer_2" data-name="Layer 2"><g id="Layer_1-2" data-name="Layer 1"><circle class="cls-1" cx="500" cy="500" r="500"/><path class="cls-2" d="M608.93,506.58l-54-24a10.59,10.59,0,0,1-6.28-9.67V458a78.76,78.76,0,0,0,29.82-61.7V375.45a19.29,19.29,0,0,0,9.94-16.85v-2a79,79,0,0,0-78.88-78.88H489.59a79,79,0,0,0-78.88,78.88V375a19.5,19.5,0,0,0,7.42,15.63,17.76,17.76,0,0,0,2.52,1.63v4.11A78.76,78.76,0,0,0,450.47,458v14.84a10.59,10.59,0,0,1-6.28,9.67l-54.05,24A49.12,49.12,0,0,0,361,551.41V674.68a9.3,9.3,0,0,0,18.6,0V551.41a30.88,30.88,0,0,1,.19-3.2l24.91,24.91a20.38,20.38,0,0,1,6,14.51v87a9.3,9.3,0,0,0,18.6,0v-87A38.88,38.88,0,0,0,417.85,560l-29.69-29.69a30.44,30.44,0,0,1,9.54-6.7L450.83,500l39.4,39.4V674.68a9.31,9.31,0,0,0,18.61,0V539.36l39.4-39.4,53.14,23.61a30.51,30.51,0,0,1,9.53,6.7L581.22,560a38.88,38.88,0,0,0-11.46,27.67v87a9.3,9.3,0,0,0,18.6,0v-87a20.4,20.4,0,0,1,6-14.51l24.91-24.91a30.88,30.88,0,0,1,.19,3.2V674.68a9.3,9.3,0,0,0,18.6,0V551.41A49.11,49.11,0,0,0,608.93,506.58Zm-109.4,15.78L465,487.78a29.1,29.1,0,0,0,4.11-14.89V469.1a78.74,78.74,0,0,0,60.92,0v3.79a29.11,29.11,0,0,0,4.12,14.89Zm0-65.74a60.35,60.35,0,0,1-60.28-60.28v-4.18a55.07,55.07,0,0,0,16.89-11,9.3,9.3,0,1,0-12.62-13.67c-4.65,4.3-9.3,7.07-13.81,8.25a1,1,0,0,1-.25,0,2,2,0,0,1-.15-.84V356.58a60.35,60.35,0,0,1,60.28-60.29h19.88a60.35,60.35,0,0,1,60.29,60.29v2a.59.59,0,0,1-.42.61c-55.69,11-83.63-9.73-93.05-19.15a9.3,9.3,0,0,0-13.16,13.15c28.89,28.88,71,29.4,96.69,26.32v16.81A60.35,60.35,0,0,1,499.53,456.62Z"/><path class="cls-2" d="M349.78,456V436.1a68.93,68.93,0,0,0-31.61-57.91,39.12,39.12,0,1,0-74.68,0,68.92,68.92,0,0,0-31.6,57.91V456a68.9,68.9,0,0,0,29.82,56.73v20.45a10.53,10.53,0,0,1-5.85,9.47l-32.17,16.08a38.92,38.92,0,0,0-21.63,35v81a9.3,9.3,0,1,0,18.6,0V597.73l15.16,15.15a20.42,20.42,0,0,1,6,14.51v47.29a9.3,9.3,0,1,0,18.6,0V627.39A38.86,38.86,0,0,0,229,599.73l-21.09-21.09-.31-.28a20.52,20.52,0,0,1,4.44-3l32.17-16.08a30,30,0,0,0,4.61-2.88l22.74,22.74v95.56a9.3,9.3,0,0,0,18.6,0V579.13l22.74-22.74a30.13,30.13,0,0,0,4.62,2.88l8.87,4.43a9.21,9.21,0,0,0,4.15,1,9.3,9.3,0,0,0,4.17-17.62l-8.87-4.44a10.51,10.51,0,0,1-5.85-9.46V512.71A68.9,68.9,0,0,0,349.78,456ZM280.83,346a20.55,20.55,0,0,1,20.52,20.53,21.19,21.19,0,0,1-.32,3.66,69.08,69.08,0,0,0-40.37,0,21.09,21.09,0,0,1-.35-3.65A20.55,20.55,0,0,1,280.83,346Zm0,39.77a50.4,50.4,0,0,1,50.35,50.34v3.37c-38.73,11.86-61.8-17.6-62.79-18.89a9.29,9.29,0,0,0-14-1c-8.87,8.87-17.57,13.16-23.85,15.22A50.39,50.39,0,0,1,280.83,385.76Zm0,176.36-21.49-21.49a29.37,29.37,0,0,0,1-7.47V521.81a69,69,0,0,0,41,0v11.35a29.82,29.82,0,0,0,1,7.47Zm0-55.79A50.4,50.4,0,0,1,230.49,456v-1.92a74.76,74.76,0,0,0,29.88-14.89,83.92,83.92,0,0,0,17.25,12.55,74,74,0,0,0,35.55,9.18,77.73,77.73,0,0,0,17.93-2.15A50.41,50.41,0,0,1,280.83,506.33Z"/><path class="cls-2" d="M795.37,538.83l-52-26a10.55,10.55,0,0,1-5.84-9.47V490.16A58.88,58.88,0,0,0,757.36,446V435.46H758a9.3,9.3,0,0,0,9.3-9.3V406.28a59.07,59.07,0,0,0-59-59H688.41a59.07,59.07,0,0,0-59,59v19.88a9.3,9.3,0,0,0,9.31,9.3h.63V446a58.86,58.86,0,0,0,19.89,44.12v13.18a10.53,10.53,0,0,1-5.85,9.47,9.3,9.3,0,0,0,4.16,17.62,9.4,9.4,0,0,0,4.16-1,30.52,30.52,0,0,0,4.61-2.88l22.74,22.74V674.69a9.3,9.3,0,1,0,18.6,0V549.3l22.74-22.74a29,29,0,0,0,4.61,2.88l50.37,25.19L770.09,569.9a38.91,38.91,0,0,0-11.45,27.67v77.11a9.3,9.3,0,0,0,18.6,0V597.57a20.36,20.36,0,0,1,6-14.51l14.47-14.47a20.6,20.6,0,0,1,.68,5.23V674.68a9.3,9.3,0,1,0,18.6,0V573.82A38.91,38.91,0,0,0,795.37,538.83ZM648,415v-8.67h0a40.44,40.44,0,0,1,40.4-40.4h19.88a40.45,40.45,0,0,1,40.41,40.4v10.33c-40.44-2.18-64.83-17.91-65.07-18.07a9.32,9.32,0,0,0-11.74,1.16C663,408.6,654.27,412.89,648,415ZM698.35,532.3l-21.49-21.49a29.37,29.37,0,0,0,1-7.47v-2a58.9,58.9,0,0,0,41,0v2a29.37,29.37,0,0,0,1,7.47Zm0-45.85A40.45,40.45,0,0,1,658,446v-15h0a78.61,78.61,0,0,0,21.82-13.32c9.77,5.08,30.21,13.86,59,16.77V446A40.46,40.46,0,0,1,698.35,486.45Z"/></g></g></svg>