<svg xmlns="http://www.w3.org/2000/svg" viewBox="0 0 1000 1000"><defs><style>.cls-1{fill:#6d4498;}.cls-2{fill:#fff;}</style></defs><g id="Layer_2" data-name="Layer 2"><g id="Layer_1-2" data-name="Layer 1"><circle class="cls-1" cx="500" cy="500" r="500"/><g id="Analysis-report-document-develop-infromation"><path class="cls-2" d="M714.61,344,624,253.46a8.5,8.5,0,0,0-5.84-2.39H412.32a24.78,24.78,0,0,0-24.7,24.71v49.81a172.7,172.7,0,0,0,0,345v49.82a24.78,24.78,0,0,0,24.7,24.7h280a24.78,24.78,0,0,0,24.7-24.7V349.89A8.51,8.51,0,0,0,714.61,344Zm-88.19-64.89,62.5,62.5H634.66a8.24,8.24,0,0,1-8.24-8.23Zm-387,219A156.64,156.64,0,0,1,387.62,341.9V494.73L279.75,602.6A155.46,155.46,0,0,1,239.4,498.11Zm52,116.1L399.23,506.34H552.06a156.15,156.15,0,0,1-260.7,107.87ZM700.53,720.44a8.24,8.24,0,0,1-8.23,8.23h-280a8.24,8.24,0,0,1-8.23-8.23V670.62A173,173,0,0,0,568.78,498.11a8.24,8.24,0,0,0-8.24-8.24H404.09V275.78a8.24,8.24,0,0,1,8.23-8.24H610v65.88a24.78,24.78,0,0,0,24.71,24.7h65.87Z"/><path class="cls-2" d="M428.79,292.24a8.24,8.24,0,0,0-8.23,8.24V465.17a8.23,8.23,0,0,0,8.23,8.23H593.48a8.23,8.23,0,0,0,8.24-8.23A173.13,173.13,0,0,0,428.79,292.24ZM437,456.93V309a156.59,156.59,0,0,1,148,148Z"/><path class="cls-2" d="M610,564a74.11,74.11,0,1,0,74.11,74.11A74.11,74.11,0,0,0,610,564Zm0,131.75a57.64,57.64,0,1,1,57.64-57.64A57.64,57.64,0,0,1,610,695.73Z"/><path class="cls-2" d="M593.48,651.15,574.6,632.27,563,643.91l24.7,24.71a8.24,8.24,0,0,0,11.64,0l49.41-49.41-11.64-11.64Z"/><path class="cls-2" d="M618.19,391.06h65.87v16.47H618.19Z"/><path class="cls-2" d="M618.19,440.47h65.87v16.46H618.19Z"/><path class="cls-2" d="M618.19,489.87h65.87v16.47H618.19Z"/></g></g></g></svg>