<svg xmlns="http://www.w3.org/2000/svg" viewBox="0 0 1000 1000"><defs><style>.cls-1{fill:#6d4498;}.cls-2{fill:#fff;}</style></defs><g id="Layer_2" data-name="Layer 2"><g id="Layer_1-2" data-name="Layer 1"><circle class="cls-1" cx="500" cy="500" r="500"/><path class="cls-2" d="M358.89,264.64a8.57,8.57,0,1,0,8.57-8.57A8.57,8.57,0,0,0,358.89,264.64Zm68.52,0a8.57,8.57,0,1,0,8.57-8.57A8.57,8.57,0,0,0,427.41,264.64ZM747.17,271H670.65V244.08a22.29,22.29,0,0,0-22.27-22.27H570.49a8.57,8.57,0,0,0,0,17.13h77.89a5.15,5.15,0,0,1,5.14,5.14v46.25H341.76V244.08a5.15,5.15,0,0,1,5.14-5.14H530.52a8.57,8.57,0,1,0,0-17.13H346.9a22.29,22.29,0,0,0-22.27,22.27V271H248.1a42.87,42.87,0,0,0-42.82,42.83V636.32a42.87,42.87,0,0,0,42.82,42.83H448.4l-6.53,48.49h-9.54a17.76,17.76,0,0,0-17.06,13L403.21,784.1a17.71,17.71,0,0,0,17.06,22.43H575a17.71,17.71,0,0,0,17.06-22.43L580,740.61a17.75,17.75,0,0,0-17-13H553.4l-6.52-48.49H747.17A42.87,42.87,0,0,0,790,636.32V313.79A42.87,42.87,0,0,0,747.17,271Zm-76.52,51.39h68V610.63h-68ZM506.2,307.46H653.52v143H635.79V433.61a52.73,52.73,0,0,0-28.62-46.84,38.73,38.73,0,1,0-54.61,0,52.72,52.72,0,0,0-28.63,46.84v16.87H506.2Zm70.4,90.6h6.51a35.58,35.58,0,0,1,35.54,35.55v16.87H541.06V433.61A35.59,35.59,0,0,1,576.6,398.06Zm-18.33-38.72a21.59,21.59,0,1,1,21.59,21.59A21.61,21.61,0,0,1,558.27,359.34ZM506.2,467.61H653.52v143H635.79V593.76a52.72,52.72,0,0,0-28.62-46.84,38.73,38.73,0,1,0-54.61,0,52.71,52.71,0,0,0-28.63,46.84v16.87H506.2Zm70.4,90.6h6.51a35.58,35.58,0,0,1,35.54,35.55v16.87H541.06V593.76A35.59,35.59,0,0,1,576.6,558.21Zm-18.33-38.72a21.59,21.59,0,1,1,21.59,21.59A21.61,21.61,0,0,1,558.27,519.49Zm-216.51-212H489.07v143H471.34V433.61a52.71,52.71,0,0,0-28.62-46.84,38.72,38.72,0,1,0-54.61,0,52.73,52.73,0,0,0-28.62,46.84v16.87H341.76Zm70.4,90.6h6.51a35.58,35.58,0,0,1,35.54,35.55v16.87H376.62V433.61A35.59,35.59,0,0,1,412.16,398.06Zm-18.33-38.72a21.59,21.59,0,1,1,21.59,21.59A21.61,21.61,0,0,1,393.83,359.34ZM341.76,467.61H489.07v143H471.34V593.76a52.7,52.7,0,0,0-28.62-46.84,38.72,38.72,0,1,0-54.61,0,52.72,52.72,0,0,0-28.62,46.84v16.87H341.76Zm70.4,90.6h6.51a35.58,35.58,0,0,1,35.54,35.55v16.87H376.62V593.76A35.59,35.59,0,0,1,412.16,558.21Zm-18.33-38.72a21.59,21.59,0,1,1,21.59,21.59A21.61,21.61,0,0,1,393.83,519.49ZM563,744.77a.58.58,0,0,1,.55.41l12.06,43.5c.11.27-.26.75-.55.72H420.27a.63.63,0,0,1-.55-.72l12.06-43.5a.58.58,0,0,1,.55-.42H563ZM459.16,727.64l6.52-48.49h63.91l6.53,48.49Zm313.71-91.32a25.73,25.73,0,0,1-25.7,25.7H248.1a25.72,25.72,0,0,1-25.69-25.7V313.79a25.72,25.72,0,0,1,25.69-25.7h76.53v17.13h-72a13.15,13.15,0,0,0-13.13,13.14V530.9a8.57,8.57,0,1,0,17.13,0V322.35h68V610.63h-68V570.87a8.57,8.57,0,0,0-17.13,0v43.75a13.15,13.15,0,0,0,13.13,13.14H742.61a13.15,13.15,0,0,0,13.13-13.14V318.36a13.15,13.15,0,0,0-13.13-13.14h-72V288.09h76.52a25.73,25.73,0,0,1,25.7,25.7ZM393.15,264.64a8.57,8.57,0,1,0,8.57-8.57A8.57,8.57,0,0,0,393.15,264.64Z"/></g></g></svg>