<svg xmlns="http://www.w3.org/2000/svg" xmlns:xlink="http://www.w3.org/1999/xlink" viewBox="0 0 779 353.5"><defs><style>.cls-1{fill:#8c202a;}.cls-2{fill:#03007f;}.cls-3{fill:url(#linear-gradient);}.cls-4{fill:url(#linear-gradient-2);}.cls-5{fill:url(#linear-gradient-3);}</style><linearGradient id="linear-gradient" x1="598.5" y1="100.5" x2="708.5" y2="100.5" gradientUnits="userSpaceOnUse"><stop offset="0" stop-color="#06017d"/><stop offset="1" stop-color="#481154"/></linearGradient><linearGradient id="linear-gradient-2" x1="150" y1="268" x2="310" y2="268" gradientUnits="userSpaceOnUse"><stop offset="0.01" stop-color="#51134e"/><stop offset="1" stop-color="#8d2129"/></linearGradient><linearGradient id="linear-gradient-3" y1="268.5" x2="122" y2="268.5" gradientUnits="userSpaceOnUse"><stop offset="0" stop-color="#4d1250"/><stop offset="1" stop-color="#601645"/></linearGradient></defs><g id="Layer_2" data-name="Layer 2"><g id="Layer_2-2" data-name="Layer 2"><path class="cls-1" d="M503,222.5A65.5,65.5,0,1,0,568.5,288,65.51,65.51,0,0,0,503,222.5Zm0,120.08A54.58,54.58,0,1,1,557.58,288,54.57,54.57,0,0,1,503,342.58Z"/><path class="cls-1" d="M528.47,289.56a4.64,4.64,0,0,1-3.37-1.44L502.48,264.6l-22.62,23.52a4.67,4.67,0,1,1-6.74-6.48l26-27a4.66,4.66,0,0,1,6.74,0l26,27a4.68,4.68,0,0,1-3.38,7.92Z"/><path class="cls-1" d="M528.87,315.34a4.75,4.75,0,0,1-3.38-1.44l-22.61-23.53-22.62,23.52a4.68,4.68,0,0,1-6.75-6.49l26-27a4.66,4.66,0,0,1,6.74,0l26,27a4.69,4.69,0,0,1-3.37,7.93Z"/><path class="cls-2" d="M170.5,0h-89a10,10,0,0,0,0,20h89a10,10,0,0,0,0-20Z"/><path class="cls-2" d="M124.5,37a10,10,0,0,0-10,10V148a10,10,0,0,0,20,0V47A10,10,0,0,0,124.5,37Z"/><path class="cls-2" d="M259.09,160.17a69,69,0,0,1-20-3c-25.7-7.79-41.63-29.05-42.6-56.86v-.25c-.19-18.87,5.71-34.77,17.08-46,10.06-9.94,24-15.65,39.16-16.1,30-.88,62.85,19.33,64.75,58.52a10,10,0,0,1-10,10.48H217.23c3.56,20.62,18.48,28.28,27.68,31.07,17.13,5.2,36.26.51,44.47-10.91a10,10,0,0,1,16.24,11.68C295.85,152.41,278,160.17,259.09,160.17ZM217.73,87h78c-5.85-19.55-24.87-29.51-42.43-29C238.17,58.44,222.21,66.5,217.73,87Z"/><path class="cls-2" d="M542.49,62.12C534.27,45.27,518.65,36,498.5,36c-22.93,0-35.88,10.41-43,20.25C448.38,46.41,435.43,36,412.5,36c-20.15,0-35.77,9.27-44,26.12a61.52,61.52,0,0,0-6,24.88v63a10,10,0,0,0,20,0V87.05a42.45,42.45,0,0,1,4.24-16.66C391.66,60.71,400.09,56,412.5,56c28.64,0,32.55,23.54,33,27.5V150a10,10,0,0,0,20,0V83.51C466,79.36,470,56,498.5,56c12.41,0,20.84,4.71,25.76,14.39A42.48,42.48,0,0,1,528.5,87v63a10,10,0,0,0,20,0V87A61.52,61.52,0,0,0,542.49,62.12Z"/><path class="cls-3" d="M652.5,162c-25.91,0-39.31-13.56-46-24.93a60.89,60.89,0,0,1-8-24.32q0-.37,0-.75V49a10,10,0,0,1,20,0v62.55c.43,4.24,4.33,30.45,34,30.45,30.44,0,35.35-25,36-29.62V49a10,10,0,0,1,20,0v64c0,.34,0,.68,0,1a59.13,59.13,0,0,1-8.78,23.88C692.62,148.89,678.71,162,652.5,162Z"/><path class="cls-4" d="M232,350.5c-34.79,0-54.35-16.39-64.63-30.14C151.69,299.41,150,275.71,150,266.5a84.44,84.44,0,0,1,20.15-54c14.88-17.41,36.13-27,59.85-27,49.61,0,70.1,39.83,70.94,41.53A10,10,0,1,1,283.06,236c-.62-1.2-16.07-30.47-53.06-30.47-41.38,0-60,35.67-60,61,0,15,5,30.68,13.38,41.89,11,14.67,27.33,22.11,48.62,22.11,38.69,0,51.73-28.75,56-45H234a10,10,0,0,1,0-20h66a10,10,0,0,1,10,10.77,97.78,97.78,0,0,1-11.63,36.63C288.71,330.05,269.38,350.5,232,350.5Z"/><path class="cls-1" d="M350.5,348.5a10,10,0,0,1-10-9.84c0-.28-.45-28.56,0-64.29.25-20.08,10.24-35.76,28.87-45.33a80,80,0,0,1,26.76-8A10,10,0,0,1,397.89,241c-1.6.15-37,3.86-37.39,33.67-.45,35.44,0,63.43,0,63.71a10,10,0,0,1-9.84,10.16Z"/><path class="cls-1" d="M647,346.5h-.22a10,10,0,0,1-9.1-6.38l-38-98a10,10,0,0,1,18.64-7.24l29.25,75.43,33.27-75.83a10,10,0,0,1,9.16-6h0a10,10,0,0,1,9.15,6.06l32.22,75.18L759.64,235A10,10,0,1,1,778.36,242l-37,98a10,10,0,0,1-18.55.41l-32.92-76.81-33.73,76.89A10,10,0,0,1,647,346.5Z"/><path class="cls-5" d="M45,350.5c-12.72,0-23.58-3.81-31.4-11-9-8.32-13.6-20.42-13.6-36,0-25.14,26.59-45.5,30-48l2.19-1.66c-2.13-2.66-3.65-4.58-4.21-5.32-5-6.69-11-17.15-11-29,0-16,13-33,37-33,13.52,0,21.5,5.63,25.8,10.34A33.38,33.38,0,0,1,88,222.41c-1.36,15-15.37,25.9-17,27.09l-10.28,7.79c6.91,8.53,14.74,18.16,21,25.9L88.05,291A160.86,160.86,0,0,0,98.37,264.8a10,10,0,0,1,19.26,5.4c-.27.95-5.94,20.94-16,37.51l18.2,22.5a10,10,0,0,1-15.56,12.58L89.34,324.38C78.92,337.09,64.67,350.5,45,350.5Zm-.22-81.11L42,271.47l-.14.1c-6.08,4.48-21.9,19-21.9,31.93,0,18.17,8.18,27,25,27,12,0,21.63-9.54,31.46-22.06L66.22,295.79C64.29,293.41,54.16,281,44.78,269.39ZM54,206.5c-13.45,0-17,8.5-17,13,0,4.94,2.49,11,7,17,.48.64,2,2.51,4.15,5.23L59,233.53c2.77-2.12,8.64-8.07,9.08-12.94a13.56,13.56,0,0,0-3-10.26C62.71,207.79,59,206.5,54,206.5Z"/></g></g></svg>